<svg width="16" height="16" viewBox="0 0 16 16" fill="none" xmlns="http://www.w3.org/2000/svg">
    <path d="M6.59216 8.69687C6.89448 9.10104 7.28019 9.43546 7.72312 9.67746C8.16605 9.91945 8.65585 10.0634 9.15929 10.0994C9.66272 10.1355 10.168 10.0628 10.6409 9.88642C11.1138 9.71002 11.5432 9.43398 11.9001 9.07702L14.012 6.96511C14.6532 6.30126 15.0079 5.41214 14.9999 4.48925C14.9919 3.56636 14.6217 2.68354 13.9691 2.03094C13.3165 1.37833 12.4337 1.00815 11.5108 1.00013C10.5879 0.992113 9.69878 1.34689 9.03493 1.98806L7.82411 3.19185"
          stroke="#A6ADB4" stroke-width="2" stroke-linecap="round" stroke-linejoin="round"/>
    <path d="M9.40788 7.28897C9.10556 6.8848 8.71985 6.55038 8.27692 6.30839C7.83399 6.06639 7.34419 5.92249 6.84076 5.88643C6.33732 5.85038 5.83202 5.92302 5.35912 6.09942C4.88622 6.27583 4.45679 6.55187 4.09996 6.90883L1.98806 9.02073C1.34689 9.68458 0.992113 10.5737 1.00013 11.4966C1.00815 12.4195 1.37833 13.3023 2.03094 13.9549C2.68354 14.6075 3.56636 14.9777 4.48925 14.9857C5.41214 14.9937 6.30126 14.639 6.96511 13.9978L8.1689 12.794"
          stroke="#A6ADB4" stroke-width="2" stroke-linecap="round" stroke-linejoin="round"/>
</svg>
