<svg width="16" height="16" viewBox="0 0 16 16" fill="none" xmlns="http://www.w3.org/2000/svg">
    <path d="M12 10H10V12H12V10Z" fill="#A6ADB4"/>
    <path d="M5 1.5V0.5C5 0.224 4.776 0 4.5 0H3.5C3.224 0 3 0.224 3 0.5V1.5C3 1.776 3.224 2 3.5 2H4.5C4.776 2 5 1.776 5 1.5Z"
          fill="#A6ADB4"/>
    <path d="M12 7H10V9H12V7Z" fill="#A6ADB4"/>
    <path d="M13 1.5V0.5C13 0.224 12.776 0 12.5 0H11.5C11.224 0 11 0.224 11 0.5V1.5C11 1.776 11.224 2 11.5 2H12.5C12.776 2 13 1.776 13 1.5Z"
          fill="#A6ADB4"/>
    <path d="M13.5 3H10.5C10.224 3 10 2.776 10 2.5V0.5C10 0.224 9.776 0 9.5 0H6.5C6.224 0 6 0.224 6 0.5V2.5C6 2.776 5.776 3 5.5 3H2.5C2.224 3 2 2.776 2 2.5V0.5C2 0.224 1.776 0 1.5 0H1C0.448 0 0 0.447 0 1V15C0 15.553 0.448 16 1 16H15C15.552 16 16 15.553 16 15V1C16 0.447 15.552 0 15 0H14.5C14.224 0 14 0.224 14 0.5V2.5C14 2.776 13.776 3 13.5 3ZM14 14H2V5H14V14Z"
          fill="#A6ADB4"/>
    <path d="M6 7H4V9H6V7Z" fill="#A6ADB4"/>
    <path d="M9 7H7V9H9V7Z" fill="#A6ADB4"/>
    <path d="M6 10H4V12H6V10Z" fill="#A6ADB4"/>
    <path d="M9 10H7V12H9V10Z" fill="#A6ADB4"/>
</svg>
