<svg width="22" height="24" viewBox="0 0 22 24" fill="none" xmlns="http://www.w3.org/2000/svg">
    <g filter="url(#filter0_d)">
        <path fill-rule="evenodd" clip-rule="evenodd"
              d="M6 2C6 0.890137 6.89001 0 8 0H14C15.11 0 16 0.890137 16 2V14H17C17.5522 14 18 14.4478 18 15C18 15.5522 17.5522 16 17 16H16H6H5C4.44775 16 4 15.5522 4 15C4 14.4478 4.44775 14 5 14H6V2ZM8 14H14V2H8V14ZM11 9V7H13V9H11Z"
              fill="#A6ADB4"/>
    </g>
    <defs>
        <filter id="filter0_d" x="0" y="0" width="22" height="24" filterUnits="userSpaceOnUse"
                color-interpolation-filters="sRGB">
            <feFlood flood-opacity="0" result="BackgroundImageFix"/>
            <feColorMatrix in="SourceAlpha" type="matrix" values="0 0 0 0 0 0 0 0 0 0 0 0 0 0 0 0 0 0 127 0"/>
            <feOffset dy="4"/>
            <feGaussianBlur stdDeviation="2"/>
            <feColorMatrix type="matrix" values="0 0 0 0 0 0 0 0 0 0 0 0 0 0 0 0 0 0 0.25 0"/>
            <feBlend mode="normal" in2="BackgroundImageFix" result="effect1_dropShadow"/>
            <feBlend mode="normal" in="SourceGraphic" in2="effect1_dropShadow" result="shape"/>
        </filter>
    </defs>
</svg>
