<svg width="17" height="15" viewBox="0 0 17 15" fill="none" xmlns="http://www.w3.org/2000/svg">
    <path d="M10.2105 12.8005C10.0874 13.0127 9.91074 13.1888 9.69817 13.3113C9.4856 13.4337 9.2446 13.4981 8.99929 13.4981C8.75398 13.4981 8.51297 13.4337 8.30041 13.3113C8.08784 13.1888 7.91116 13.0127 7.78807 12.8005M16.0005 12H1.99805C2.5551 12 3.09168 11.2806 3.48558 10.8867C3.87947 10.4928 4.00039 9.95854 4.00039 9.40149V5.90087C4.00039 4.60108 4.6171 3.35452 5.53619 2.43543C6.45529 1.51634 7.70184 1 9.00163 1C10.3014 1 11.548 1.51634 12.4671 2.43543C13.3862 3.35452 14.0004 4.60108 14.0004 5.90087V9.40149C14.0004 9.95854 14.1238 10.4928 14.5177 10.8867C14.9116 11.2806 15.4435 12 16.0005 12Z"
          stroke="#A6ADB4" stroke-width="2" stroke-linecap="round" stroke-linejoin="round"/>
</svg>
