<svg width="40" height="40" viewBox="0 0 40 40" fill="none" xmlns="http://www.w3.org/2000/svg">
    <circle cx="20" cy="20" r="20" fill="#F7F7F8"/>
    <path fill-rule="evenodd" clip-rule="evenodd"
          d="M20.7188 10.6843C21.8504 9.59132 23.3661 8.98656 24.9392 9.00023C26.5124 9.0139 28.0173 9.64491 29.1297 10.7574C30.2422 11.8698 30.8732 13.3747 30.8869 14.9479C30.9005 16.521 30.2958 18.0367 29.2028 19.1683L29.1968 19.1745L26.1908 22.1805C25.5825 22.789 24.8505 23.2596 24.0444 23.5603C23.2383 23.861 22.3769 23.9848 21.5188 23.9233C20.6606 23.8619 19.8257 23.6166 19.0706 23.2041C18.3156 22.7916 17.6581 22.2215 17.1428 21.5325C16.812 21.0903 16.9023 20.4636 17.3446 20.1328C17.7868 19.802 18.4135 19.8923 18.7443 20.3346C19.0879 20.7939 19.5262 21.1739 20.0295 21.4489C20.5329 21.7239 21.0895 21.8875 21.6616 21.9284C22.2337 21.9694 22.808 21.8869 23.3454 21.6864C23.8828 21.4859 24.3708 21.1722 24.7763 20.7666L27.77 17.7729C28.495 17.0192 28.896 16.0113 28.887 14.9652C28.8778 13.9165 28.4572 12.9132 27.7155 12.1716C26.9739 11.4299 25.9706 11.0093 24.9219 11.0002C23.8754 10.9911 22.8671 11.3925 22.1132 12.1181L20.3986 13.8227C20.0069 14.2121 19.3738 14.2103 18.9844 13.8186C18.595 13.4269 18.5968 12.7938 18.9885 12.4044L20.7136 10.6893L20.7188 10.6843Z"
          fill="#445769"/>
    <path fill-rule="evenodd" clip-rule="evenodd"
          d="M16.8427 16.3784C17.6488 16.0777 18.5102 15.9539 19.3683 16.0153C20.2265 16.0768 21.0614 16.3221 21.8165 16.7346C22.5715 17.1471 23.229 17.7172 23.7443 18.4061C24.0751 18.8484 23.9848 19.4751 23.5425 19.8059C23.1003 20.1367 22.4736 20.0463 22.1428 19.6041C21.7992 19.1448 21.3609 18.7647 20.8576 18.4897C20.3542 18.2147 19.7976 18.0512 19.2255 18.0102C18.6534 17.9692 18.0791 18.0518 17.5417 18.2523C17.0043 18.4527 16.5163 18.7664 16.1108 19.1721L13.1172 22.1657C12.3921 22.9195 11.9911 23.9274 12.0002 24.9734C12.0093 26.0222 12.4299 27.0255 13.1716 27.7671C13.9132 28.5087 14.9165 28.9294 15.9652 28.9385C17.0113 28.9476 18.0192 28.5466 18.7729 27.8215L20.4765 26.118C20.867 25.7275 21.5001 25.7275 21.8907 26.118C22.2812 26.5085 22.2812 27.1417 21.8907 27.5322L20.1745 29.2484L20.1683 29.2544C19.0367 30.3473 17.521 30.9521 15.9479 30.9384C14.3747 30.9248 12.8698 30.2938 11.7574 29.1813C10.6449 28.0689 10.0139 26.564 10.0002 24.9908C9.98656 23.4176 10.5913 21.902 11.6843 20.7704L11.6903 20.7641L14.6963 17.7581C14.6964 17.7581 14.6963 17.7582 14.6963 17.7581C15.3046 17.1497 16.0367 16.6791 16.8427 16.3784Z"
          fill="#445769"/>
</svg>
