<svg width="20" height="22" viewBox="0 0 20 22" fill="none" xmlns="http://www.w3.org/2000/svg">
    <path fill-rule="evenodd" clip-rule="evenodd"
          d="M6 0C4.34326 0 3 1.34326 3 3V20H1C0.447754 20 0 20.4478 0 21C0 21.5522 0.447754 22 1 22H19C19.5522 22 20 21.5522 20 21C20 20.4478 19.5522 20 19 20H17V3C17 1.34326 15.6567 0 14 0H6ZM15 20V3C15 2.44775 14.5522 2 14 2H6C5.44775 2 5 2.44775 5 3V20H15ZM13 12C13 12.5522 12.5522 13 12 13C11.4478 13 11 12.5522 11 12C11 11.4478 11.4478 11 12 11C12.5522 11 13 11.4478 13 12Z"
          fill="white"/>
</svg>
