<svg width="19" height="15" viewBox="0 0 19 15" fill="none" xmlns="http://www.w3.org/2000/svg">
    <path fill-rule="evenodd" clip-rule="evenodd"
          d="M1 2.42285C1.55225 2.42285 2 1.96875 2 1.40869C2 0.848633 1.55225 0.394531 1 0.394531C0.447754 0.394531 0 0.848633 0 1.40869C0 1.96875 0.447754 2.42285 1 2.42285ZM5 0.394531C4.44775 0.394531 4 0.848633 4 1.40869C4 1.96875 4.44775 2.42285 5 2.42285H18C18.5522 2.42285 19 1.96875 19 1.40869C19 0.848633 18.5522 0.394531 18 0.394531H5ZM5 6.479C4.44775 6.479 4 6.93311 4 7.49316C4 8.05322 4.44775 8.50732 5 8.50732H18C18.5522 8.50732 19 8.05322 19 7.49316C19 6.93311 18.5522 6.479 18 6.479H5ZM4 13.5776C4 13.0176 4.44775 12.5635 5 12.5635H18C18.5522 12.5635 19 13.0176 19 13.5776C19 14.1377 18.5522 14.5918 18 14.5918H5C4.44775 14.5918 4 14.1377 4 13.5776ZM2 7.49316C2 8.05322 1.55225 8.50732 1 8.50732C0.447754 8.50732 0 8.05322 0 7.49316C0 6.93311 0.447754 6.479 1 6.479C1.55225 6.479 2 6.93311 2 7.49316ZM1 14.5918C1.55225 14.5918 2 14.1377 2 13.5776C2 13.0176 1.55225 12.5635 1 12.5635C0.447754 12.5635 0 13.0176 0 13.5776C0 14.1377 0.447754 14.5918 1 14.5918Z"
          fill="#445769"/>
</svg>
