<svg width="19" height="14" viewBox="0 0 19 14" fill="none" xmlns="http://www.w3.org/2000/svg">
    <path fill-rule="evenodd" clip-rule="evenodd"
          d="M1 2C1.55225 2 2 1.55225 2 1C2 0.447754 1.55225 0 1 0C0.447754 0 0 0.447754 0 1C0 1.55225 0.447754 2 1 2ZM5 0C4.44775 0 4 0.447754 4 1C4 1.55225 4.44775 2 5 2H18C18.5522 2 19 1.55225 19 1C19 0.447754 18.5522 0 18 0H5ZM5 6C4.44775 6 4 6.44775 4 7C4 7.55225 4.44775 8 5 8H18C18.5522 8 19 7.55225 19 7C19 6.44775 18.5522 6 18 6H5ZM4 13C4 12.4478 4.44775 12 5 12H18C18.5522 12 19 12.4478 19 13C19 13.5522 18.5522 14 18 14H5C4.44775 14 4 13.5522 4 13ZM2 7C2 7.55225 1.55225 8 1 8C0.447754 8 0 7.55225 0 7C0 6.44775 0.447754 6 1 6C1.55225 6 2 6.44775 2 7ZM1 14C1.55225 14 2 13.5522 2 13C2 12.4478 1.55225 12 1 12C0.447754 12 0 12.4478 0 13C0 13.5522 0.447754 14 1 14Z"
          fill="white"/>
</svg>
